<svg width="24" height="24" viewBox="0 0 24 24" fill="none" xmlns="http://www.w3.org/2000/svg">
<path d="M16.254 7.74607C15.1746 6.66671 13.6508 5.96829 12 5.96829C10.3492 5.96829 8.82544 6.63496 7.74607 7.74607C6.66671 8.82544 5.96829 10.3492 5.96829 12C5.96829 13.6508 6.66671 15.1746 7.74607 16.254C8.82544 17.3334 10.3492 18.0318 12 18.0318C13.6508 18.0318 15.1746 17.3651 16.254 16.254C17.3334 15.1746 18.0318 13.6508 18.0318 12C18.0318 10.3492 17.3651 8.82544 16.254 7.74607ZM15.1111 15.1111C14.3175 15.9048 13.2064 16.381 12 16.381C10.7937 16.381 9.68258 15.9048 8.88893 15.1111C8.09528 14.3175 7.61909 13.2064 7.61909 12C7.61909 10.7937 8.09528 9.68258 8.88893 8.88893C9.68258 8.09528 10.7937 7.61909 12 7.61909C13.2064 7.61909 14.3175 8.09528 15.1111 8.88893C15.9048 9.68258 16.381 10.7937 16.381 12C16.381 13.2064 15.9048 14.3175 15.1111 15.1111Z" fill="#343434"/>
<path d="M23.1746 11.1746H20.7301C20.2857 11.1746 19.9047 11.5555 19.9047 12C19.9047 12.4444 20.2857 12.8254 20.7301 12.8254H23.1746C23.619 12.8254 24 12.4444 24 12C24 11.5555 23.619 11.1746 23.1746 11.1746Z" fill="#343434"/>
<path d="M12 19.9047C11.5555 19.9047 11.1746 20.2857 11.1746 20.7301V23.1746C11.1746 23.619 11.5555 24 12 24C12.4444 24 12.8254 23.619 12.8254 23.1746V20.7301C12.8254 20.2857 12.4444 19.9047 12 19.9047Z" fill="#343434"/>
<path d="M20.4762 19.3334L18.7302 17.5873C18.4445 17.2699 17.9048 17.2699 17.5873 17.5873C17.2699 17.9048 17.2699 18.4127 17.5873 18.7302L19.3334 20.4762C19.6508 20.7937 20.1588 20.7937 20.4762 20.4762C20.7937 20.1588 20.7937 19.6508 20.4762 19.3334Z" fill="#343434"/>
<path d="M12 0C11.5555 0 11.1746 0.380952 11.1746 0.825396V3.26984C11.1746 3.71428 11.5555 4.09523 12 4.09523C12.4444 4.09523 12.8254 3.71428 12.8254 3.26984V0.825396C12.8254 0.380952 12.4444 0 12 0Z" fill="#343434"/>
<path d="M20.5079 3.52378C20.1905 3.20633 19.6825 3.20633 19.3651 3.52378L17.619 5.26981C17.3016 5.58727 17.3016 6.09521 17.619 6.41267C17.9048 6.73013 18.4444 6.73013 18.7619 6.41267L20.5079 4.66664C20.8254 4.34918 20.8254 3.84124 20.5079 3.52378Z" fill="#343434"/>
<path d="M3.26984 11.1746H0.825396C0.380952 11.1746 0 11.5555 0 12C0 12.4444 0.349206 12.8254 0.825396 12.8254H3.26984C3.71428 12.8254 4.09523 12.4444 4.09523 12C4.09523 11.5555 3.71428 11.1746 3.26984 11.1746Z" fill="#343434"/>
<path d="M6.38095 17.5873C6.09524 17.2699 5.55555 17.2699 5.23809 17.5873L3.49206 19.3334C3.1746 19.6508 3.1746 20.1588 3.49206 20.4762C3.80952 20.7937 4.31746 20.7937 4.63492 20.4762L6.38095 18.7302C6.69841 18.4127 6.69841 17.9048 6.38095 17.5873Z" fill="#343434"/>
<path d="M6.38095 5.26981L4.63492 3.52378C4.31746 3.20633 3.80952 3.20633 3.49206 3.52378C3.1746 3.84124 3.1746 4.34918 3.49206 4.66664L5.23809 6.41267C5.55555 6.73013 6.06349 6.73013 6.38095 6.41267C6.69841 6.09521 6.69841 5.58727 6.38095 5.26981Z" fill="#343434"/>
</svg>
