<svg width="24" height="24" viewBox="0 0 24 24" fill="none" xmlns="http://www.w3.org/2000/svg">
<path d="M20 5.00002C18.1325 5.00002 16.564 6.27979 16.1235 8.01014C15.9872 8.54535 16.4477 9.00001 17 9.00001C17.5523 9.00001 17.9793 8.52549 18.2445 8.04105C18.5841 7.42068 19.2429 6.99999 20 6.99999C21.1046 6.99999 22 7.8954 22 9.00001C22 10.1046 21.1046 11 20 11H7.00001C6.44772 11 6 11.4477 6 12C6 12.5523 6.44772 13 7.00001 13H20C22.2091 13 24 11.2091 24 9.00001C24 6.79088 22.2091 5.00002 20 5.00002Z" fill="#343434"/>
<path d="M15.9271 15H5.00001C4.44772 15 4 15.4477 4 16C4 16.5523 4.44772 17 5.00001 17H15.9271C17.0317 17 17.9271 17.8955 17.9271 19V19.0729C17.9271 19.9115 17.3915 20.6249 16.6438 20.8899C16.3022 21.0109 16 21.2938 16 21.6563C16 22.3984 16.619 23.0224 17.3181 22.7734C18.8387 22.2317 19.9271 20.7794 19.9271 19.073V19.0001C19.9271 16.7909 18.1363 15 15.9271 15Z" fill="#343434"/>
<path d="M2.99997 11H1.00002C0.447722 11 0 11.4478 0 12C0 12.5523 0.447722 13.0001 1.00002 13.0001H2.99997C3.55226 13.0001 3.99998 12.5523 3.99998 12C3.99998 11.4478 3.55226 11 2.99997 11Z" fill="#343434"/>
<path d="M9.98797 0.999977C7.95905 0.999977 6.28839 2.53392 6.07244 4.50534C6.04397 4.76521 6.21074 5.00017 6.45535 5.09241C6.52619 5.11912 6.60127 5.1328 6.67698 5.1328H7.4996C7.5771 5.1328 7.65373 5.1164 7.72444 5.08467C7.92183 4.99611 8.04181 4.79815 8.08103 4.58538C8.24729 3.68334 9.03783 2.99999 9.98797 2.99999C11.0589 2.99999 11.9271 3.86816 11.9271 4.93912V5.00001C11.9271 6.10457 11.0316 7.00002 9.92708 7.00002H2.99998C2.44771 7.00002 2 7.44773 2 8.00001C2 8.55228 2.44771 8.99999 2.99998 8.99999H9.92712C12.1362 8.99999 13.9271 7.20913 13.9271 5.00001V4.93912C13.9271 2.7636 12.1635 0.999977 9.98797 0.999977Z" fill="#343434"/>
</svg>
