<svg width="40" height="40" viewBox="0 0 40 40" fill="none" xmlns="http://www.w3.org/2000/svg">
<path d="M27.09 12.9101C25.2911 11.1112 22.7514 9.94714 20.0001 9.94714C17.2488 9.94714 14.7091 11.0583 12.9101 12.9101C11.1112 14.709 9.94718 17.2487 9.94718 20.0001C9.94718 22.7514 11.1112 25.2911 12.9101 27.09C14.7091 28.8889 17.2488 30.053 20.0001 30.053C22.7514 30.053 25.2911 28.9419 27.09 27.09C28.889 25.2911 30.053 22.7514 30.053 20.0001C30.053 17.2487 28.9419 14.709 27.09 12.9101ZM25.1853 25.1852C23.8625 26.508 22.0107 27.3016 20.0001 27.3016C17.9895 27.3016 16.1377 26.508 14.8149 25.1852C13.4922 23.8625 12.6985 22.0106 12.6985 20.0001C12.6985 17.9895 13.4922 16.1376 14.8149 14.8149C16.1377 13.4921 17.9895 12.6985 20.0001 12.6985C22.0107 12.6985 23.8625 13.4921 25.1853 14.8149C26.508 16.1376 27.3017 17.9895 27.3017 20.0001C27.3017 22.0106 26.508 23.8625 25.1853 25.1852Z" fill="black"/>
<path d="M38.6243 18.6243H34.5502C33.8095 18.6243 33.1745 19.2592 33.1745 19.9999C33.1745 20.7407 33.8095 21.3756 34.5502 21.3756H38.6243C39.365 21.3756 40 20.7407 40 19.9999C40 19.2592 39.365 18.6243 38.6243 18.6243Z" fill="black"/>
<path d="M19.9999 33.1745C19.2592 33.1745 18.6243 33.8095 18.6243 34.5502V38.6243C18.6243 39.365 19.2592 40 19.9999 40C20.7407 40 21.3756 39.365 21.3756 38.6243V34.5502C21.3756 33.8095 20.7407 33.1745 19.9999 33.1745Z" fill="black"/>
<path d="M34.127 32.2223L31.217 29.3122C30.7408 28.7831 29.8413 28.7831 29.3122 29.3122C28.7831 29.8413 28.7831 30.6879 29.3122 31.217L32.2223 34.127C32.7514 34.6561 33.5979 34.6561 34.127 34.127C34.6561 33.5979 34.6561 32.7514 34.127 32.2223Z" fill="black"/>
<path d="M19.9999 0C19.2592 0 18.6243 0.63492 18.6243 1.37566V5.44973C18.6243 6.19047 19.2592 6.82539 19.9999 6.82539C20.7407 6.82539 21.3756 6.19047 21.3756 5.44973V1.37566C21.3756 0.63492 20.7407 0 19.9999 0Z" fill="black"/>
<path d="M34.1799 5.87299C33.6508 5.34389 32.8043 5.34389 32.2752 5.87299L29.3651 8.78304C28.836 9.31214 28.836 10.1587 29.3651 10.6878C29.8413 11.2169 30.7408 11.2169 31.2699 10.6878L34.1799 7.77775C34.709 7.24865 34.709 6.40209 34.1799 5.87299Z" fill="black"/>
<path d="M5.44973 18.6243H1.37566C0.63492 18.6243 0 19.2592 0 19.9999C0 20.7407 0.58201 21.3756 1.37566 21.3756H5.44973C6.19047 21.3756 6.82539 20.7407 6.82539 19.9999C6.82539 19.2592 6.19047 18.6243 5.44973 18.6243Z" fill="black"/>
<path d="M10.6349 29.3122C10.1587 28.7831 9.25927 28.7831 8.73016 29.3122L5.82011 32.2223C5.29101 32.7514 5.29101 33.5979 5.82011 34.127C6.34921 34.6561 7.19577 34.6561 7.72487 34.127L10.6349 31.217C11.164 30.6879 11.164 29.8413 10.6349 29.3122Z" fill="black"/>
<path d="M10.6349 8.78304L7.72487 5.87299C7.19577 5.34389 6.34921 5.34389 5.82011 5.87299C5.29101 6.40209 5.29101 7.24865 5.82011 7.77775L8.73016 10.6878C9.25927 11.2169 10.1058 11.2169 10.6349 10.6878C11.164 10.1587 11.164 9.31214 10.6349 8.78304Z" fill="black"/>
</svg>
