<svg width="24" height="24" viewBox="0 0 24 24" fill="none" xmlns="http://www.w3.org/2000/svg">
<path d="M8.00002 13.5278V3.99998C8.00002 1.79086 9.79088 0 12 0C14.2091 0 16 1.79086 16 3.99998V13.5278C17.2275 14.6264 18 16.223 18 18C18 21.3137 15.3137 24 12 24C8.68631 24 6 21.3137 6 18C6 16.223 6.7725 14.6264 8.00002 13.5278ZM12 22C14.2091 22 16 20.2091 16 18C16 16.8451 15.5106 15.7738 14.6662 15.018L14 14.4218V3.99998C14 2.89542 13.1045 1.99997 12 1.99997C10.8954 1.99997 9.99994 2.89538 9.99994 3.99998V14.4218L9.33375 15.018C8.48934 15.7738 7.99992 16.8451 7.99992 18C8.00002 20.2091 9.79088 22 12 22Z" fill="#343434"/>
<path d="M11 19V9.00002C11 8.44773 11.4477 8.00002 12 8.00002C12.5523 8.00002 13 8.44773 13 9.00002V19C13 19.5523 12.5523 20 12 20C11.4477 20 11 19.5523 11 19Z" fill="#343434"/>
<path d="M12 21C10.3431 21 9 19.6569 9 18C9 16.3431 10.3431 15 12 15C13.6569 15 15 16.3431 15 18C15 19.6569 13.6569 21 12 21Z" fill="#343434"/>
</svg>
