<svg width="164" height="102" viewBox="0 0 164 102" fill="none" xmlns="http://www.w3.org/2000/svg">
<path d="M124.274 40.7011L124.767 43.1515L127.218 42.6583C129.082 42.2831 130.982 42.0947 132.886 42.0947C148.7 42.0947 161.5 54.8459 161.5 70.5485C161.5 86.251 148.7 99.0023 132.886 99.0023H28.2322C14.1532 98.9797 2.71417 87.7345 2.50294 73.7604C2.29297 59.7875 13.3866 48.2051 27.4574 47.7626L30.9124 47.6539L29.7273 44.4068C23.8131 28.2011 32.2197 10.2779 48.5336 4.38594C64.8537 -1.50829 82.8729 6.87927 88.7894 23.0924L89.7193 25.6408L92.1835 24.5062C98.5546 21.5726 105.927 21.7054 112.185 24.8667L112.185 24.8667C118.444 28.0279 122.897 33.865 124.274 40.7011Z" stroke="black" stroke-width="5"/>
</svg>
