<svg width="24" height="24" viewBox="0 0 24 24" fill="none" xmlns="http://www.w3.org/2000/svg">
<path d="M12.6857 23.6728C13.8216 22.2531 15.1091 20.644 15.1091 17.5314C15.1091 14.4188 13.8216 12.8096 12.6857 11.3898C11.6116 10.0471 10.6838 8.88749 10.6838 6.46883C10.6838 4.05013 11.6116 2.89053 12.6857 1.54789C13.0001 1.15484 12.9579 0.563 12.5913 0.225921C12.2247 -0.111157 11.6727 -0.0658742 11.3583 0.327173C10.2224 1.74697 8.93494 3.35619 8.93494 6.46883C8.93494 9.58147 10.2224 11.1907 11.3583 12.6105C12.4325 13.9532 13.3602 15.1128 13.3602 17.5314C13.3602 19.95 12.4325 21.1095 11.3583 22.4521C11.0439 22.8451 11.0861 23.4369 11.4527 23.7741C11.8193 24.1112 12.3713 24.0658 12.6857 23.6728Z" fill="#343434"/>
<path d="M3.75081 23.6728C4.88671 22.2531 6.17416 20.644 6.17416 17.5314C6.17416 14.4188 4.88671 12.8096 3.75081 11.3898C2.67664 10.0471 1.74889 8.88755 1.74889 6.46885C1.74889 4.05025 2.67659 2.89065 3.75081 1.54792C4.0653 1.15487 4.02293 0.563078 3.65632 0.226C3.28975 -0.111126 2.73763 -0.0657045 2.42326 0.327295C1.28736 1.74709 -9.02718e-07 3.35631 -7.66611e-07 6.46885C-6.305e-07 9.58149 1.28745 11.1907 2.42335 12.6105C3.49752 13.9532 4.42527 15.1128 4.42527 17.5314C4.42527 19.95 3.49757 21.1095 2.42335 22.4521C2.1089 22.8451 2.15114 23.437 2.51775 23.7741C2.88432 24.1112 3.4364 24.0658 3.75081 23.6728Z" fill="#343434"/>
<path d="M20.2491 0.32714C19.1133 1.74693 17.8257 3.35615 17.8257 6.46879C17.8257 9.58142 19.1132 11.1906 20.2491 12.6104C21.3233 13.9531 22.2511 15.1127 22.2511 17.5314C22.2511 19.9498 21.3234 21.1094 20.2492 22.452L20.2491 22.452C19.9348 22.845 19.977 23.4368 20.3436 23.774C20.7101 24.111 21.2622 24.0657 21.5767 23.6727C22.7126 22.253 24 20.6438 24 17.5314C24 14.4187 22.7125 12.8095 21.5766 11.3897C20.5024 10.047 19.5747 8.88744 19.5747 6.46879C19.5747 4.05009 20.5024 2.89049 21.5766 1.54786C21.891 1.15481 21.8488 0.562969 21.4822 0.22589C21.1156 -0.111186 20.5635 -0.0659052 20.2491 0.32714Z" fill="#343434"/>
</svg>
